<svg t="1689514515494" class="icon" viewBox="0 0 1024 1024" version="1.1" xmlns="http://www.w3.org/2000/svg" p-id="1151" width="16" height="16"><path d="M448.2048 464.384v180.992c0 16.6912-18.0736 30.208-39.424 30.208h-39.7312v180.3776c-0.0512 47.9232-49.0496 87.552-111.7184 90.3168l-6.9632 0.1536c-65.536 0-118.6816-40.6528-118.6816-90.4704v-180.3776h-39.7824c-21.76 0-39.3728-13.7216-39.3728-30.208V464.384c0.1024-80.7936 83.456-147.2512 189.2864-150.8352l8.5504-0.1536c109.2096 0 197.8368 67.2768 197.8368 150.9888zM579.6352 675.1232c-31.1808 0-59.3408-15.0528-59.3408-30.1056 27.8016-63.5904 82.8928-210.5856 138.496-316.5184 0 0 39.5264-15.104 79.104-15.104h39.5776c39.5264 0 79.104 15.104 79.104 15.104 55.6032 105.9328 110.6432 252.928 138.496 316.5184 0 15.0528-28.16 30.1056-59.392 30.1056h-59.2896v180.992c-0.1024 47.8208-49.0496 87.3472-111.7696 90.1632l-6.9632 0.1536c-65.536 0-118.6816-40.6016-118.6816-90.3168v-180.992h-59.3408zM244.3776 76.032a118.6816 118.6816 0 1 1 0 237.3632 118.6816 118.6816 0 0 1 0-237.3632zM759.04 76.032a118.6816 118.6816 0 1 1 0 237.3632 118.6816 118.6816 0 0 1 0-237.3632z" fill="#00A4FF" p-id="1152"></path></svg>